<?xml version="1.0" encoding="utf-8"?>
<svg id="Layer_1" x="0px" y="0px" width="64px" height="64px" viewBox="0 0 64 64" xmlns="http://www.w3.org/2000/svg">
  <g transform="matrix(0.936654, 0, 0, 1.027701, -1.04516, -4.657983)">
    <path fill="#FFFFFF" d="M 13.995 51 C 12.928 51 11.872 50.828 10.856 50.49 C 6.757 49.136 4 45.321 4 41 C 4 38.115 5.25 35.37 7.429 33.469 C 7.991 32.976 8.602 32.552 9.255 32.2 L 9.222 32.197 L 9.886 29.883 C 11.541 24.11 16.886 20.077 22.886 20.077 C 23.483 20.077 24.096 20.125 24.817 20.228 C 25.369 20.308 25.911 20.419 26.441 20.562 L 26.706 20.084 C 29.13 15.714 33.73 13 38.714 13 C 46.281 13 52.439 19.162 52.439 26.736 C 52.439 27.107 52.416 27.468 52.385 27.83 L 52.364 28.095 C 52.948 28.318 53.518 28.59 54.068 28.908 C 57.726 31.018 40.957 42.49 37.247 42.87 C 31.728 43.436 56.228 49.449 50.826 50.69 C 49.942 50.896 49.048 51 48.171 51 L 13.995 51 Z"/>
    <path fill="#75D6FF" d="M 38.714 15 C 45.19 15 50.439 20.255 50.439 26.736 C 50.439 27.051 50.418 27.358 50.392 27.666 C 47.682 27.873 47.274 28.637 45.339 30.318 C 46.778 29.49 46.389 29.325 48.17 29.325 C 48.83 29.325 49.473 29.392 50.096 29.517 C 51.159 29.727 51.132 29.661 52.04 30.186 C 54.986 31.886 34.737 39.472 34.63 43.117 C 34.492 47.811 40.274 50.467 48.276 49.359 C 48.999 49.259 48.931 49 48.171 49 C 48.171 49 48.17 49 48.169 49 L 13.995 49 L 13.994 49 C 13.118 49 12.277 48.855 11.488 48.593 C 8.302 47.54 6 44.539 6 41 C 6 38.593 7.065 36.44 8.744 34.976 C 9.504 34.31 10.39 33.79 11.362 33.451 C 12.187 33.163 13.07 32.998 13.995 32.998 C 16.572 32.998 18.858 34.225 20.32 36.12 L 20.391 36.119 C 18.695 32.993 15.522 30.788 11.808 30.434 C 13.19 25.614 17.622 22.077 22.885 22.077 C 23.446 22.077 23.993 22.131 24.533 22.208 C 25.601 22.362 26.621 22.655 27.574 23.08 C 31.119 24.664 33.711 27.982 34.287 31.957 C 34.287 31.935 34.289 31.91 34.289 31.889 C 34.289 27.362 31.969 23.377 28.454 21.055 C 30.456 17.446 34.298 15 38.714 15 M 38.714 11 C 33.32 11 28.318 13.774 25.441 18.3 C 25.33 18.281 25.218 18.264 25.106 18.248 C 24.283 18.13 23.58 18.076 22.886 18.076 C 16 18.076 9.864 22.704 7.964 29.331 L 7.512 30.908 C 7.021 31.225 6.552 31.578 6.108 31.968 C 3.5 34.243 2 37.537 2 41 C 2 46.187 5.309 50.764 10.233 52.391 C 11.445 52.794 12.713 53 13.994 53 L 48.169 53 C 49.199 53 50.246 52.878 51.282 52.638 C 57.589 51.188 37.219 45.892 41.35 40.891 C 42.938 38.969 48.361 35.686 52.097 32.732 C 55.053 30.395 56.953 28.264 55.063 27.174 C 54.857 27.055 54.649 26.941 54.438 26.833 C 54.438 26.801 54.438 26.769 54.438 26.736 C 54.438 18.059 47.385 11 38.714 11 L 38.714 11 Z"/>
  </g>
  <path style="fill: rgb(0, 0, 0); fill-opacity: 1; fill-rule: nonzero; stroke: none;" d="M 19.139 19.024 C 17.445 22.552 18.449 27.061 21.386 29.099 C 24.322 31.134 28.076 29.925 29.772 26.398 L 27.999 25.168 C 26.87 27.52 24.366 28.326 22.41 26.969 C 20.452 25.611 19.781 22.605 20.911 20.253 L 19.139 19.024 Z M 22.683 21.482 C 22.118 22.659 22.455 24.162 23.432 24.84 C 24.411 25.521 25.663 25.116 26.228 23.941 L 24.456 22.711 L 22.683 21.482 Z" id="path2989"/>
  <path id="path3023" d="M 42.521 19.34 C 44.303 22.575 43.246 26.712 40.161 28.578 C 37.074 30.446 33.13 29.338 31.348 26.103 L 33.211 24.977 C 34.398 27.134 37.028 27.872 39.086 26.627 C 41.143 25.381 41.846 22.624 40.659 20.468 L 42.521 19.34 Z M 38.798 21.595 C 39.391 22.672 39.038 24.052 38.01 24.674 C 36.981 25.296 35.666 24.928 35.073 23.849 L 36.935 22.721 L 38.798 21.595 Z" style="fill: rgb(0, 0, 0); fill-opacity: 1; fill-rule: nonzero; stroke: none;"/>
  <path d="M 49.774 41.871 C 50.274 40.835 50.524 39.714 50.524 38.512 C 50.524 37.312 50.274 36.188 49.774 35.143 C 49.272 34.098 48.612 33.362 47.786 32.935 C 47.667 32.859 47.522 32.816 47.343 32.816 C 47.037 32.816 46.772 32.965 46.548 33.256 C 46.327 33.551 46.212 33.907 46.212 34.338 C 46.212 34.668 46.284 34.95 46.424 35.179 C 46.566 35.408 46.736 35.606 46.937 35.772 C 47.137 35.938 47.338 36.119 47.538 36.318 C 47.739 36.516 47.91 36.795 48.05 37.158 C 48.192 37.523 48.263 37.973 48.263 38.512 C 48.263 39.05 48.192 39.501 48.05 39.866 C 47.91 40.229 47.739 40.511 47.538 40.71 C 47.338 40.907 47.137 41.089 46.937 41.253 C 46.736 41.42 46.566 41.619 46.424 41.847 C 46.284 42.075 46.212 42.358 46.212 42.691 C 46.212 43.118 46.327 43.476 46.548 43.768 C 46.772 44.063 47.037 44.21 47.343 44.21 C 47.522 44.21 47.667 44.168 47.786 44.091 C 48.612 43.648 49.272 42.906 49.774 41.871 Z"/>
  <path d="M 52.892 43.517 C 53.852 41.953 54.331 40.249 54.331 38.401 C 54.331 36.555 53.852 34.851 52.892 33.287 C 51.934 31.724 50.665 30.587 49.088 29.873 C 48.942 29.813 48.794 29.785 48.649 29.785 C 48.356 29.785 48.101 29.897 47.887 30.128 C 47.673 30.356 47.567 30.629 47.567 30.943 C 47.567 31.412 47.786 31.769 48.226 32.011 C 48.857 32.361 49.286 32.627 49.511 32.807 C 50.346 33.458 50.996 34.277 51.463 35.26 C 51.931 36.245 52.164 37.29 52.164 38.401 C 52.164 39.512 51.931 40.56 51.463 41.544 C 50.996 42.527 50.346 43.346 49.511 43.997 C 49.286 44.177 48.857 44.443 48.226 44.793 C 47.786 45.035 47.567 45.391 47.567 45.86 C 47.567 46.176 47.673 46.448 47.887 46.676 C 48.101 46.907 48.361 47.02 48.664 47.02 C 48.801 47.02 48.942 46.989 49.088 46.931 C 50.665 46.217 51.934 45.081 52.892 43.517 Z"/>
  <path d="M 55.698 31.926 C 54.388 29.895 52.644 28.4 50.468 27.439 C 50.334 27.387 50.2 27.36 50.067 27.36 C 49.8 27.36 49.567 27.461 49.369 27.66 C 49.173 27.861 49.077 28.098 49.077 28.373 C 49.077 28.753 49.277 29.065 49.68 29.307 C 49.751 29.349 49.868 29.405 50.028 29.473 C 50.188 29.541 50.302 29.597 50.376 29.638 C 50.85 29.903 51.272 30.172 51.644 30.446 C 52.914 31.405 53.903 32.605 54.616 34.04 C 55.327 35.473 55.684 36.997 55.684 38.613 C 55.684 40.229 55.327 41.753 54.616 43.188 C 53.903 44.623 52.914 45.82 51.644 46.781 C 51.272 47.055 50.85 47.325 50.376 47.59 C 50.302 47.629 50.188 47.685 50.028 47.755 C 49.868 47.822 49.751 47.876 49.68 47.92 C 49.277 48.164 49.077 48.476 49.077 48.856 C 49.077 49.128 49.173 49.366 49.369 49.565 C 49.567 49.768 49.8 49.868 50.067 49.868 C 50.2 49.868 50.334 49.842 50.468 49.787 C 52.644 48.828 54.388 47.331 55.698 45.301 C 57.01 43.269 57.663 41.04 57.663 38.613 C 57.663 36.186 57.01 33.956 55.698 31.926 Z"/>
  <path d="M 46.959 40.027 C 47.351 39.494 47.547 38.919 47.547 38.3 C 47.547 37.683 47.351 37.104 46.959 36.567 C 46.566 36.029 46.048 35.652 45.403 35.432 C 45.311 35.392 45.195 35.37 45.057 35.37 C 44.817 35.37 44.61 35.445 44.434 35.597 C 44.26 35.748 44.172 35.933 44.172 36.152 C 44.172 36.323 44.226 36.468 44.339 36.586 C 44.447 36.704 44.583 36.806 44.738 36.891 C 44.895 36.975 45.052 37.07 45.209 37.172 C 45.366 37.274 45.499 37.417 45.61 37.604 C 45.721 37.792 45.777 38.023 45.777 38.3 C 45.777 38.576 45.721 38.809 45.61 38.996 C 45.499 39.183 45.366 39.327 45.209 39.429 C 45.052 39.532 44.895 39.626 44.738 39.709 C 44.583 39.795 44.447 39.897 44.339 40.015 C 44.226 40.132 44.172 40.277 44.172 40.448 C 44.172 40.667 44.26 40.852 44.434 41.003 C 44.61 41.155 44.817 41.23 45.057 41.23 C 45.195 41.23 45.311 41.208 45.403 41.169 C 46.048 40.94 46.567 40.56 46.959 40.027 Z"/>
  <path d="M 59.877 30.077 C 58.205 27.445 55.976 25.508 53.198 24.264 C 53.028 24.196 52.857 24.161 52.685 24.161 C 52.345 24.161 52.048 24.29 51.795 24.549 C 51.544 24.811 51.424 25.118 51.424 25.473 C 51.424 25.967 51.678 26.369 52.191 26.684 C 52.283 26.737 52.432 26.812 52.636 26.899 C 52.84 26.989 52.988 27.06 53.08 27.112 C 53.687 27.456 54.226 27.806 54.699 28.16 C 56.319 29.402 57.586 30.958 58.495 32.816 C 59.401 34.675 59.857 36.649 59.857 38.742 C 59.857 40.837 59.401 42.811 58.495 44.671 C 57.586 46.53 56.319 48.08 54.699 49.327 C 54.226 49.681 53.687 50.032 53.08 50.374 C 52.988 50.426 52.84 50.497 52.636 50.588 C 52.432 50.674 52.283 50.745 52.191 50.802 C 51.678 51.118 51.424 51.521 51.424 52.016 C 51.424 52.368 51.544 52.676 51.795 52.932 C 52.048 53.197 52.345 53.326 52.685 53.326 C 52.857 53.326 53.028 53.292 53.198 53.222 C 55.976 51.98 58.205 50.04 59.877 47.41 C 61.551 44.777 62.386 41.888 62.386 38.742 C 62.386 35.598 61.551 32.708 59.877 30.077 Z"/>
</svg>